<svg width="0" height="0" class="hidden">
  <symbol xmlns="http://www.w3.org/2000/svg" viewBox="0 0 50 50" id="instagram">
    <path d="M 16 3 C 8.8324839 3 3 8.8324839 3 16 L 3 34 C 3 41.167516 8.8324839 47 16 47 L 34 47 C 41.167516 47 47 41.167516 47 34 L 47 16 C 47 8.8324839 41.167516 3 34 3 L 16 3 z M 16 5 L 34 5 C 40.086484 5 45 9.9135161 45 16 L 45 34 C 45 40.086484 40.086484 45 34 45 L 16 45 C 9.9135161 45 5 40.086484 5 34 L 5 16 C 5 9.9135161 9.9135161 5 16 5 z M 37 11 A 2 2 0 0 0 35 13 A 2 2 0 0 0 37 15 A 2 2 0 0 0 39 13 A 2 2 0 0 0 37 11 z M 25 14 C 18.936712 14 14 18.936712 14 25 C 14 31.063288 18.936712 36 25 36 C 31.063288 36 36 31.063288 36 25 C 36 18.936712 31.063288 14 25 14 z M 25 16 C 29.982407 16 34 20.017593 34 25 C 34 29.982407 29.982407 34 25 34 C 20.017593 34 16 29.982407 16 25 C 16 20.017593 20.017593 16 25 16 z"></path>
  </symbol>
  <symbol xmlns="http://www.w3.org/2000/svg" viewBox="0 0 48 48" id="pinterest">
    <circle cx="24" cy="24" r="20" fill="currentColor"></circle>
    <path fill="#000" d="M24.4439087,11.4161377c-8.6323242,0-13.2153931,5.7946167-13.2153931,12.1030884	c0,2.9338379,1.5615234,6.5853882,4.0599976,7.7484131c0.378418,0.1762085,0.581543,0.1000366,0.668457-0.2669067	c0.0668945-0.2784424,0.4038086-1.6369019,0.5553589-2.2684326c0.0484619-0.2015381,0.0246582-0.3746338-0.1384277-0.5731201	c-0.8269653-1.0030518-1.4884644-2.8461304-1.4884644-4.5645752c0-4.4115601,3.3399658-8.6799927,9.0299683-8.6799927	c4.9130859,0,8.3530884,3.3484497,8.3530884,8.1369019c0,5.4099731-2.7322998,9.1584473-6.2869263,9.1584473	c-1.9630737,0-3.4330444-1.6238403-2.9615479-3.6153564c0.5654297-2.3769531,1.6569214-4.9415283,1.6569214-6.6584473	c0-1.5354004-0.8230591-2.8169556-2.5299683-2.8169556c-2.006958,0-3.6184692,2.0753784-3.6184692,4.8569336	c0,1.7700195,0.5984497,2.9684448,0.5984497,2.9684448s-1.9822998,8.3815308-2.3453979,9.9415283	c-0.4019775,1.72229-0.2453003,4.1416016-0.0713501,5.7233887l0,0c0.4511108,0.1768799,0.9024048,0.3537598,1.3687744,0.4981079l0,0	c0.8168945-1.3278198,2.0349731-3.5056763,2.4864502-5.2422485c0.2438354-0.9361572,1.2468872-4.7546387,1.2468872-4.7546387	c0.6515503,1.2438965,2.5561523,2.296936,4.5831299,2.296936c6.0314941,0,10.378418-5.546936,10.378418-12.4400024	C36.7738647,16.3591919,31.3823242,11.4161377,24.4439087,11.4161377z"></path>
  </symbol>
  <symbol xmlns="http://www.w3.org/2000/svg" viewBox="0 0 48 48" id="pinterest-light">
    <circle cx="24" cy="24" r="20" fill="currentColor"></circle>
    <path fill="#fff" d="M24.4439087,11.4161377c-8.6323242,0-13.2153931,5.7946167-13.2153931,12.1030884	c0,2.9338379,1.5615234,6.5853882,4.0599976,7.7484131c0.378418,0.1762085,0.581543,0.1000366,0.668457-0.2669067	c0.0668945-0.2784424,0.4038086-1.6369019,0.5553589-2.2684326c0.0484619-0.2015381,0.0246582-0.3746338-0.1384277-0.5731201	c-0.8269653-1.0030518-1.4884644-2.8461304-1.4884644-4.5645752c0-4.4115601,3.3399658-8.6799927,9.0299683-8.6799927	c4.9130859,0,8.3530884,3.3484497,8.3530884,8.1369019c0,5.4099731-2.7322998,9.1584473-6.2869263,9.1584473	c-1.9630737,0-3.4330444-1.6238403-2.9615479-3.6153564c0.5654297-2.3769531,1.6569214-4.9415283,1.6569214-6.6584473	c0-1.5354004-0.8230591-2.8169556-2.5299683-2.8169556c-2.006958,0-3.6184692,2.0753784-3.6184692,4.8569336	c0,1.7700195,0.5984497,2.9684448,0.5984497,2.9684448s-1.9822998,8.3815308-2.3453979,9.9415283	c-0.4019775,1.72229-0.2453003,4.1416016-0.0713501,5.7233887l0,0c0.4511108,0.1768799,0.9024048,0.3537598,1.3687744,0.4981079l0,0	c0.8168945-1.3278198,2.0349731-3.5056763,2.4864502-5.2422485c0.2438354-0.9361572,1.2468872-4.7546387,1.2468872-4.7546387	c0.6515503,1.2438965,2.5561523,2.296936,4.5831299,2.296936c6.0314941,0,10.378418-5.546936,10.378418-12.4400024	C36.7738647,16.3591919,31.3823242,11.4161377,24.4439087,11.4161377z"></path>
  </symbol>
  <symbol xmlns="http://www.w3.org/2000/svg" viewBox="0 0 48 48" id="twitter">
    <path fill="currentColor" d="M42,12.429c-1.323,0.586-2.746,0.977-4.247,1.162c1.526-0.906,2.7-2.351,3.251-4.058c-1.428,0.837-3.01,1.452-4.693,1.776C34.967,9.884,33.05,9,30.926,9c-4.08,0-7.387,3.278-7.387,7.32c0,0.572,0.067,1.129,0.193,1.67c-6.138-0.308-11.582-3.226-15.224-7.654c-0.64,1.082-1,2.349-1,3.686c0,2.541,1.301,4.778,3.285,6.096c-1.211-0.037-2.351-0.374-3.349-0.914c0,0.022,0,0.055,0,0.086c0,3.551,2.547,6.508,5.923,7.181c-0.617,0.169-1.269,0.263-1.941,0.263c-0.477,0-0.942-0.054-1.392-0.135c0.94,2.902,3.667,5.023,6.898,5.086c-2.528,1.96-5.712,3.134-9.174,3.134c-0.598,0-1.183-0.034-1.761-0.104C9.268,36.786,13.152,38,17.321,38c13.585,0,21.017-11.156,21.017-20.834c0-0.317-0.01-0.633-0.025-0.945C39.763,15.197,41.013,13.905,42,12.429"></path>
  </symbol>
</svg>